<svg xmlns="http://www.w3.org/2000/svg" version="1.1" xmlns:xlink="http://www.w3.org/1999/xlink" xmlns:svgjs="http://svgjs.com/svgjs" width="168" height="208"><svg width="168" height="208" viewBox="0 0 168 208" fill="none" xmlns="http://www.w3.org/2000/svg">
<rect x="85" y="1" width="22" height="22" stroke="black" stroke-width="2"></rect>
<rect x="61" y="25" width="22" height="22" stroke="black" stroke-width="2"></rect>
<rect x="85" y="49" width="22" height="22" stroke="black" stroke-width="2"></rect>
<rect x="61" y="73" width="22" height="22" stroke="black" stroke-width="2"></rect>
<path d="M21.42 187.2C17.7 187.2 14.04 186.14 10.44 184.02L5.34 186.6H4.02V171.18H5.34L10.5 182.34C13.82 184.7 17.62 185.88 21.9 185.88C25.42 185.88 28.32 184.96 30.6 183.12C32.92 181.24 34.08 178.62 34.08 175.26C34.08 172.82 33.34 170.9 31.86 169.5C30.38 168.06 27.98 166.92 24.66 166.08L14.7 163.5C11.22 162.58 8.6 161.02 6.84 158.82C5.08 156.58 4.2 153.94 4.2 150.9C4.2 148.14 4.74 145.7 5.82 143.58C6.94 141.42 8.56 139.76 10.68 138.6C12.8 137.4 15.32 136.8 18.24 136.8C21.88 136.8 25.14 137.42 28.02 138.66L32.4 136.8H33.72V149.04H32.4L28.08 140.28C25.08 138.84 21.82 138.12 18.3 138.12C14.82 138.12 12.08 139.02 10.08 140.82C8.08 142.58 7.08 144.92 7.08 147.84C7.08 150 7.78 151.7 9.18 152.94C10.62 154.18 12.72 155.16 15.48 155.88L26.22 158.7C29.7 159.58 32.28 161.1 33.96 163.26C35.68 165.38 36.54 168.62 36.54 172.98C36.54 177.42 35.16 180.9 32.4 183.42C29.68 185.94 26.02 187.2 21.42 187.2ZM38.2809 186V184.74L44.1609 182.34L61.5009 136.8H62.4609L78.8409 183.84L84.3609 184.74V186H66.7209V184.74L71.6409 183.96L66.5409 169.74H50.5809L45.7209 182.34L51.1209 184.74V186H38.2809ZM51.0609 168.48H66.1209L58.9209 147.36L51.0609 168.48ZM85.4859 184.74L91.0059 183.84V140.16L85.4859 139.32V138H104.326C110.246 138 114.646 139.26 117.526 141.78C120.406 144.3 121.846 147.94 121.846 152.7C121.846 157.46 120.406 161.1 117.526 163.62C114.646 166.14 110.246 167.4 104.326 167.4H97.6059V183.84L103.126 184.74V186H85.4859V184.74ZM103.486 165.96C110.886 165.96 114.586 161.94 114.586 153.9V151.5C114.586 143.5 110.886 139.5 103.486 139.5H97.6059V165.96H103.486ZM126.502 186V184.74L132.022 183.84V140.16L126.502 139.32V138H162.622V151.74H161.002L156.382 139.5H138.622V161.1H146.422L149.962 152.4H151.522V171.36H149.962L146.362 162.54H138.622V184.56H157.462L162.382 171.36H163.942V186H126.502Z" fill="black"></path>
</svg><style>@media (prefers-color-scheme: light) { :root { filter: none; } }
</style></svg>